<svg id="основа" xmlns="http://www.w3.org/2000/svg" xmlns:xlink="http://www.w3.org/1999/xlink" viewBox="0 0 128 128"><defs><style>.cls-1{fill:none;}.cls-2{fill:#31db92;}.cls-3{fill:#e5d53a;}.cls-4{fill:#efc411;}.cls-5{clip-path:url(#clip-path);}.cls-6{fill:#128e59;}.cls-7{fill:#138f5a;}.cls-8{fill:#13905a;}.cls-9{fill:#14915b;}.cls-10{fill:#14925c;}.cls-11{fill:#15935d;}.cls-12{fill:#15945d;}.cls-13{fill:#16955e;}.cls-14{fill:#16965f;}.cls-15{fill:#17975f;}.cls-16{fill:#189860;}.cls-17{fill:#189961;}.cls-18{fill:#199a62;}.cls-19{fill:#199b62;}.cls-20{fill:#1a9c63;}.cls-21{fill:#1a9d64;}.cls-22{fill:#1b9e65;}.cls-23{fill:#1b9f65;}.cls-24{fill:#1ca066;}.cls-25{fill:#1ca167;}.cls-26{fill:#1da267;}.cls-27{fill:#1ea368;}.cls-28{fill:#1ea469;}.cls-29{fill:#1fa56a;}.cls-30{fill:#1fa66a;}.cls-31{fill:#20a76b;}.cls-32{fill:#20a86c;}.cls-33{fill:#21a96c;}.cls-34{fill:#21aa6d;}.cls-35{fill:#22ab6e;}.cls-36{fill:#23ac6f;}.cls-37{fill:#23ad6f;}.cls-38{fill:#24ae70;}.cls-39{fill:#24af71;}.cls-40{fill:#25b071;}.cls-41{fill:#25b172;}.cls-42{fill:#26b273;}.cls-43{fill:#26b374;}.cls-44{fill:#27b474;}.cls-45{fill:#27b575;}.cls-46{fill:#28b676;}.cls-47{fill:#29b776;}.cls-48{fill:#29b877;}.cls-49{fill:#2ab978;}.cls-50{fill:#2aba79;}.cls-51{fill:#2bbc79;}.cls-52{fill:#2bbd7a;}.cls-53{fill:#2cbe7b;}.cls-54{fill:#2cbf7c;}.cls-55{fill:#2dc07c;}.cls-56{fill:#2ec17d;}.cls-57{fill:#2ec27e;}.cls-58{fill:#2fc37e;}.cls-59{fill:#2fc47f;}.cls-60{fill:#30c580;}.cls-61{fill:#30c681;}.cls-62{fill:#31c781;}.cls-63{fill:#31c882;}.cls-64{fill:#32c983;}.cls-65{fill:#32ca83;}.cls-66{fill:#33cb84;}.cls-67{fill:#34cc85;}.cls-68{fill:#34cd86;}.cls-69{fill:#35ce86;}.cls-70{fill:#35cf87;}.cls-71{fill:#36d088;}.cls-72{fill:#36d188;}.cls-73{fill:#37d289;}.cls-74{fill:#37d38a;}.cls-75{fill:#38d48b;}.cls-76{fill:#39d58b;}.cls-77{fill:#39d68c;}.cls-78{fill:#3ad78d;}.cls-79{fill:#3ad88d;}.cls-80{fill:#3bd98e;}.cls-81{fill:#3bda8f;}.cls-82{fill:#3cdb90;}.cls-83{fill:#3cdc90;}.cls-84{fill:#3ddd91;}.cls-85{fill:#3dde92;}.cls-86{fill:#3edf93;}.cls-87{fill:#3fe093;}.cls-88{fill:#3fe194;}.cls-89{fill:#40e295;}.cls-90{fill:#40e395;}.cls-91{fill:#41e496;}.cls-92{fill:#41e597;}.cls-93{fill:#42e698;}.cls-94{fill:#42e798;}.cls-95{fill:#43e899;}.cls-96{fill:#fffffa;}.cls-97{fill:#f4f4ea;}</style><clipPath id="clip-path"><path class="cls-1" d="M116.65,99.33a63.06,63.06,0,0,1-33.71,24.92,62.2,62.2,0,0,1-14.47,2.62q-2,.12-4,0.13a63.11,63.11,0,0,1-14.39-1.65l-32.77-37L93.88,77.43Z"/></clipPath></defs><title>Weather icons</title><path class="cls-2" d="M127.5,64A62.81,62.81,0,0,1,124,84.73c-0.29.83-.59,1.64-0.91,2.44a62.07,62.07,0,0,1-6.44,12.16,63.06,63.06,0,0,1-33.71,24.92,62.2,62.2,0,0,1-14.47,2.62q-2,.12-4,0.13A63,63,0,1,1,127.5,64Z"/><circle class="cls-3" cx="83.22" cy="56.88" r="22.15"/><path class="cls-3" d="M83,32.34a1,1,0,0,1-1-1V23.71a1,1,0,0,1,2,0v7.68A1,1,0,0,1,83,32.34Z"/><path class="cls-3" d="M91,86.71a1,1,0,0,1-1-1V77.43a1,1,0,0,1,2,0v8.31A1,1,0,0,1,91,86.71Z"/><path class="cls-3" d="M116.63,58H109a1,1,0,0,1,0-2h7.68A1,1,0,0,1,116.63,58Z"/><path class="cls-3" d="M66.1,53H57.78a1,1,0,0,1,0-2H66.1A1,1,0,0,1,66.1,53Z"/><line class="cls-3" x1="72.87" y1="70.42" x2="67.15" y2="76.15"/><path class="cls-3" d="M67.15,77.1a1,1,0,0,1-.67-1.63l5.73-5.73a1,1,0,0,1,1.35,1.35l-5.73,5.73A1,1,0,0,1,67.15,77.1Z"/><line class="cls-3" x1="100.9" y1="39.19" x2="106.63" y2="33.46"/><path class="cls-3" d="M100.9,40.14a1,1,0,0,1-.67-1.63L106,32.79a1,1,0,1,1,1.35,1.35l-5.73,5.73A1,1,0,0,1,100.9,40.14Z"/><line class="cls-3" x1="65.51" y1="38.54" x2="59.89" y2="32.72"/><path class="cls-3" d="M65.51,39.49a1,1,0,0,1-.69-0.29L59.2,33.38a1,1,0,1,1,1.37-1.32l5.63,5.83A1,1,0,0,1,65.51,39.49Z"/><line class="cls-3" x1="100.59" y1="74.87" x2="106.22" y2="80.69"/><path class="cls-3" d="M106.22,81.65a1,1,0,0,1-.69-0.29l-5.63-5.83a1,1,0,0,1,1.37-1.32L106.9,80A1,1,0,0,1,106.22,81.65Z"/><path class="cls-4" d="M102,45.15c0,0.3,0,.59,0,0.89C102,60.71,88.23,72.6,71.19,72.6a36.06,36.06,0,0,1-3.78-.21A22.15,22.15,0,0,0,102,45.15Z"/><g class="cls-5"><polygon class="cls-6" points="44.33 77 17 88.34 17 77 44.33 77"/><polygon class="cls-6" points="46.05 77 17 89.03 17 88.34 44.33 77 46.05 77"/><polygon class="cls-7" points="47.77 77 17 89.73 17 89.03 46.05 77 47.77 77"/><polygon class="cls-8" points="49.5 77 17 90.43 17 89.73 47.77 77 49.5 77"/><polygon class="cls-9" points="51.22 77 17 91.12 17 90.43 49.5 77 51.22 77"/><polygon class="cls-10" points="52.95 77 17.19 91.59 17 91.75 17 91.12 51.22 77 52.95 77"/><polygon class="cls-11" points="54.67 77 17.6 92.19 17.36 91.49 52.95 77 54.67 77"/><polygon class="cls-12" points="56.39 77 17.84 92.79 17.6 92.08 54.67 77 56.39 77"/><polygon class="cls-13" points="58.12 77 18.09 93.39 17.84 92.68 56.39 77 58.12 77"/><polygon class="cls-14" points="59.84 77 18.33 93.99 18.09 93.28 58.12 77 59.84 77"/><polygon class="cls-15" points="61.56 77 18.57 94.59 18.33 93.88 59.84 77 61.56 77"/><polygon class="cls-16" points="63.29 77 18.81 95.19 18.57 94.48 61.56 77 63.29 77"/><polygon class="cls-17" points="65.01 77 19.05 95.78 18.81 95.08 63.29 77 65.01 77"/><polygon class="cls-18" points="66.73 77 19.3 96.38 19.05 95.68 65.01 77 66.73 77"/><polygon class="cls-19" points="68.46 77 19.54 96.98 19.3 96.28 66.73 77 68.46 77"/><polygon class="cls-20" points="70.18 77 19.78 97.58 19.54 96.87 68.46 77 70.18 77"/><polygon class="cls-21" points="71.91 77 20.02 98.18 19.78 97.47 70.18 77 71.91 77"/><polygon class="cls-22" points="73.63 77 20.26 98.78 20.02 98.07 71.91 77 73.63 77"/><polygon class="cls-23" points="75.35 77 20.5 99.38 20.26 98.67 73.63 77 75.35 77"/><polygon class="cls-24" points="77.08 77 20.75 99.97 20.5 99.27 75.35 77 77.08 77"/><polygon class="cls-25" points="78.8 77 20.99 100.57 20.75 99.87 77.08 77 78.8 77"/><polygon class="cls-26" points="80.53 77 21.23 101.17 20.99 100.47 78.8 77 80.53 77"/><polygon class="cls-27" points="82.25 77 21.47 101.77 21.23 101.06 80.53 77 82.25 77"/><polygon class="cls-28" points="83.97 77 21.71 102.37 21.47 101.66 82.25 77 83.97 77"/><polygon class="cls-29" points="85.7 77 21.96 102.97 21.71 102.26 83.97 77 85.7 77"/><polygon class="cls-30" points="87.42 77 22.2 103.57 21.96 102.86 85.7 77 87.42 77"/><polygon class="cls-31" points="89.14 77 22.44 104.17 22.2 103.46 87.42 77 89.14 77"/><polygon class="cls-32" points="90.87 77 22.68 104.77 22.44 104.06 89.14 77 90.87 77"/><polygon class="cls-33" points="92.59 77 22.92 105.36 22.68 104.66 90.87 77 92.59 77"/><polygon class="cls-34" points="94.31 77 23.16 105.96 22.92 105.26 92.59 77 94.31 77"/><polygon class="cls-35" points="96.04 77 23.41 106.56 23.16 105.85 94.31 77 96.04 77"/><polygon class="cls-36" points="97.76 77 23.65 107.16 23.41 106.45 96.04 77 97.76 77"/><polygon class="cls-37" points="99.49 77 23.89 107.76 23.65 107.05 97.76 77 99.49 77"/><polygon class="cls-38" points="101.21 77 24.13 108.36 23.89 107.65 99.49 77 101.21 77"/><polygon class="cls-39" points="102.93 77 24.37 108.96 24.13 108.25 101.21 77 102.93 77"/><polygon class="cls-40" points="104.66 77 24.62 109.55 24.37 108.85 102.93 77 104.66 77"/><polygon class="cls-41" points="106.38 77 24.86 110.15 24.62 109.45 104.66 77 106.38 77"/><polygon class="cls-42" points="108.1 77 25.1 110.75 24.86 110.05 106.38 77 108.1 77"/><polygon class="cls-43" points="109.18 77 109.27 77.44 25.34 111.46 25.1 110.7 108.1 77 109.18 77"/><rect class="cls-44" x="22.17" y="94.59" width="90.52" height="0.65" transform="translate(-30.64 32.17) rotate(-22)"/><rect class="cls-45" x="22.41" y="95.19" width="90.52" height="0.65" transform="translate(-30.85 32.3) rotate(-22)"/><rect class="cls-46" x="22.65" y="95.78" width="90.52" height="0.65" transform="translate(-31.06 32.44) rotate(-22)"/><rect class="cls-47" x="22.89" y="96.38" width="90.52" height="0.65" transform="translate(-31.26 32.57) rotate(-22)"/><rect class="cls-48" x="23.13" y="96.98" width="90.52" height="0.65" transform="translate(-31.47 32.71) rotate(-22)"/><rect class="cls-49" x="23.38" y="97.58" width="90.52" height="0.65" transform="translate(-31.68 32.84) rotate(-22)"/><rect class="cls-50" x="23.62" y="98.18" width="90.52" height="0.65" transform="translate(-31.88 32.98) rotate(-22)"/><rect class="cls-51" x="23.86" y="98.78" width="90.52" height="0.65" transform="translate(-32.09 33.11) rotate(-22)"/><rect class="cls-52" x="24.1" y="99.38" width="90.52" height="0.65" transform="translate(-32.3 33.24) rotate(-22)"/><rect class="cls-53" x="24.34" y="99.98" width="90.52" height="0.65" transform="translate(-32.5 33.38) rotate(-22)"/><rect class="cls-54" x="24.59" y="100.57" width="90.52" height="0.65" transform="translate(-32.71 33.51) rotate(-22)"/><rect class="cls-55" x="24.83" y="101.17" width="90.52" height="0.65" transform="translate(-32.92 33.65) rotate(-22)"/><rect class="cls-56" x="25.07" y="101.77" width="90.52" height="0.65" transform="translate(-33.12 33.78) rotate(-22)"/><rect class="cls-57" x="25.31" y="102.37" width="90.52" height="0.65" transform="translate(-33.33 33.92) rotate(-22)"/><rect class="cls-58" x="25.55" y="102.97" width="90.52" height="0.65" transform="translate(-33.54 34.05) rotate(-22)"/><rect class="cls-59" x="25.8" y="103.57" width="90.52" height="0.65" transform="translate(-33.74 34.18) rotate(-22)"/><rect class="cls-60" x="26.04" y="104.17" width="90.52" height="0.65" transform="translate(-33.95 34.32) rotate(-22)"/><rect class="cls-61" x="26.28" y="104.76" width="90.52" height="0.65" transform="translate(-34.16 34.45) rotate(-22)"/><rect class="cls-62" x="26.52" y="105.36" width="90.52" height="0.65" transform="translate(-34.36 34.59) rotate(-22)"/><rect class="cls-63" x="26.76" y="105.96" width="90.52" height="0.65" transform="translate(-34.57 34.72) rotate(-22)"/><rect class="cls-64" x="27" y="106.56" width="90.52" height="0.65" transform="translate(-34.78 34.85) rotate(-22)"/><rect class="cls-65" x="27.25" y="107.16" width="90.52" height="0.65" transform="translate(-34.98 34.99) rotate(-22)"/><rect class="cls-66" x="27.49" y="107.76" width="90.52" height="0.65" transform="translate(-35.19 35.12) rotate(-22)"/><rect class="cls-67" x="27.73" y="108.36" width="90.52" height="0.65" transform="translate(-35.4 35.26) rotate(-22)"/><rect class="cls-68" x="27.97" y="108.96" width="90.52" height="0.65" transform="translate(-35.6 35.39) rotate(-22)"/><polygon class="cls-69" points="115.32 92.62 115.56 93.22 31.96 127 31.58 127 31.39 126.53 115.32 92.62"/><polygon class="cls-70" points="115.56 93.22 115.81 93.82 33.68 127 31.96 127 115.56 93.22"/><polygon class="cls-71" points="115.81 93.82 116.05 94.42 35.41 127 33.68 127 115.81 93.82"/><polygon class="cls-72" points="116.05 94.42 116.29 95.02 37.13 127 35.41 127 116.05 94.42"/><polygon class="cls-73" points="116.29 95.02 116.53 95.62 38.85 127 37.13 127 116.29 95.02"/><polygon class="cls-74" points="116.7 95.62 117 95.92 117 96.26 40.58 127 38.85 127 116.7 95.62"/><polygon class="cls-75" points="117 96.96 42.3 127 40.58 127 117 96.26 117 96.96"/><polygon class="cls-76" points="117 97.66 44.02 127 42.3 127 117 96.96 117 97.66"/><polygon class="cls-77" points="117 98.35 45.75 127 44.02 127 117 97.66 117 98.35"/><polygon class="cls-78" points="117 99.05 47.47 127 45.75 127 117 98.35 117 99.05"/><polygon class="cls-79" points="117 99.75 49.2 127 47.47 127 117 99.05 117 99.75"/><polygon class="cls-80" points="117 100.44 50.92 127 49.2 127 117 99.75 117 100.44"/><polygon class="cls-81" points="117 101.14 52.64 127 50.92 127 117 100.44 117 101.14"/><polygon class="cls-82" points="117 101.83 54.37 127 52.64 127 117 101.14 117 101.83"/><polygon class="cls-83" points="117 102.53 56.09 127 54.37 127 117 101.83 117 102.53"/><polygon class="cls-84" points="117 103.23 57.81 127 56.09 127 117 102.53 117 103.23"/><polygon class="cls-85" points="117 103.92 59.54 127 57.81 127 117 103.23 117 103.92"/><polygon class="cls-86" points="117 104.62 61.26 127 59.54 127 117 103.92 117 104.62"/><polygon class="cls-87" points="117 105.32 62.98 127 61.26 127 117 104.62 117 105.32"/><polygon class="cls-88" points="117 106.01 64.71 127 62.98 127 117 105.32 117 106.01"/><polygon class="cls-89" points="117 106.71 66.43 127 64.71 127 117 106.01 117 106.71"/><polygon class="cls-90" points="117 107.41 68.16 127 66.43 127 117 106.71 117 107.41"/><polygon class="cls-91" points="117 108.1 69.88 127 68.16 127 117 107.41 117 108.1"/><polygon class="cls-92" points="117 108.8 71.6 127 69.88 127 117 108.1 117 108.8"/><polygon class="cls-93" points="117 109.5 73.33 127 71.6 127 117 108.8 117 109.5"/><polygon class="cls-94" points="117 110.19 75.05 127 73.33 127 117 109.5 117 110.19"/><polygon class="cls-95" points="117 110.89 76.77 127 75.05 127 117 110.19 117 110.89"/><polygon class="cls-95" points="76.77 127 117 110.89 117 127 76.77 127"/></g><path class="cls-96" d="M95.27,82.92a11.52,11.52,0,0,0-9-11.24,7.8,7.8,0,0,0-11.11-9.08,21.74,21.74,0,0,0-41.71.1,16.14,16.14,0,1,0-3.62,31.9L29.91,95H83.86l-0.09-.41A11.65,11.65,0,0,0,95.27,82.92Z"/><path class="cls-97" d="M95.27,82.92a11.52,11.52,0,0,0-9-11.24,7.8,7.8,0,0,0-11.11-9.08,21.75,21.75,0,0,0-26.06-14.9A21.78,21.78,0,0,1,64.7,62.59a7.8,7.8,0,0,1,11.11,9.08,11.52,11.52,0,0,1,9,11.24,11.65,11.65,0,0,1-11.5,11.67L73.42,95H83.86l-0.09-.41A11.65,11.65,0,0,0,95.27,82.92Z"/></svg>