<?xml version="1.0" encoding="iso-8859-1"?>
<!-- Generator: Adobe Illustrator 19.0.0, SVG Export Plug-In . SVG Version: 6.00 Build 0)  -->
<svg version="1.1" id="Capa_1" xmlns="http://www.w3.org/2000/svg" xmlns:xlink="http://www.w3.org/1999/xlink" x="0px" y="0px"
	 viewBox="0 0 511.998 511.998" style="enable-background:new 0 0 511.998 511.998;" xml:space="preserve">
<path style="fill:#FFC850;" d="M105.25,306.157c12.943-20.699,37.903-29.862,60.889-22.983c13.334-22.735,38.012-38.01,66.273-38.01
	c1.389,0,2.766,0.05,4.137,0.123c1.93-7.488,2.958-15.338,2.958-23.429c0-51.683-41.898-93.581-93.581-93.581
	s-93.581,41.898-93.581,93.581C52.345,258.963,73.942,291.022,105.25,306.157z"/>
<path style="fill:#00C3FF;" d="M344.591,321.433c-4.587-19.179-23.084-32.64-43.692-29.803
	c-11.184-27.995-38.531-47.784-70.517-47.784c-27.942,0-52.342,15.104-65.525,37.582c-29.822-8.925-60.598,9.623-67.053,39.582
	c-32.441-0.668-58.648,25.433-58.648,57.418c0,31.728,25.721,57.448,57.448,57.448h255.103c31.728,0,57.448-25.721,57.448-57.448
	C409.155,344.146,379.2,317.157,344.591,321.433z"/>
<path style="fill:#008CFF;" d="M466.405,282.211c-0.32,0-0.635,0.017-0.953,0.024c-5.121-23.767-29.54-38.5-53.218-31.414
	c-10.462-17.84-29.828-29.827-52.005-29.827c-25.386,0-47.09,15.706-55.966,37.924c-1.405-0.193-2.836-0.301-4.294-0.301
	c-6.638,0-12.781,2.084-17.84,5.614c8.12,7.575,14.579,16.911,18.769,27.399c20.616-2.837,39.107,10.631,43.692,29.803
	c32.764-4.049,61.556,19.981,64.331,51.966h57.483c25.181,0,45.594-20.413,45.594-45.594
	C511.999,302.624,491.586,282.211,466.405,282.211z"/>
<path style="fill:#0074FF;" d="M429.273,373.4c-2.466-38.411-32.931-69.326-71.16-72.457c-9.228-16.188-25.636-27.272-44.534-29.554
	c-2.682-4.636-5.719-8.996-9.067-13.055c-0.08,0.196-0.167,0.388-0.246,0.585c-1.405-0.194-2.836-0.301-4.294-0.301
	c-6.638,0-12.781,2.084-17.84,5.614c8.12,7.575,14.579,16.911,18.768,27.399c20.615-2.838,39.107,10.631,43.692,29.803
	c32.768-4.05,61.556,19.985,64.331,51.966L429.273,373.4L429.273,373.4z"/>
<g>
	<path style="fill:#FFC850;" d="M144.871,104.457c-4.204,0-7.612-3.408-7.612-7.612V83.734c0-4.204,3.408-7.612,7.612-7.612
		s7.612,3.408,7.612,7.612v13.112C152.483,101.05,149.075,104.457,144.871,104.457z"/>
	<path style="fill:#FFC850;" d="M51.703,138.59l-9.271-9.271c-2.973-2.973-2.973-7.792,0-10.766c2.972-2.971,7.792-2.971,10.765,0
		l9.271,9.271c2.973,2.973,2.973,7.792,0,10.766C59.494,141.563,54.675,141.562,51.703,138.59z"/>
	<path style="fill:#FFC850;" d="M20.723,228.606H7.612c-4.204,0-7.612-3.408-7.612-7.612s3.408-7.612,7.612-7.612h13.111
		c4.204,0,7.612,3.408,7.612,7.612C28.335,225.198,24.927,228.606,20.723,228.606z"/>
	<path style="fill:#FFC850;" d="M282.131,228.606H269.02c-4.204,0-7.612-3.408-7.612-7.612s3.408-7.612,7.612-7.612h13.111
		c4.204,0,7.612,3.408,7.612,7.612C289.743,225.198,286.335,228.606,282.131,228.606z"/>
	<path style="fill:#FFC850;" d="M42.432,323.433c-2.973-2.973-2.973-7.792,0-10.766l9.271-9.271c2.972-2.971,7.792-2.971,10.765,0
		c2.973,2.973,2.973,7.792,0,10.766l-9.271,9.271C50.223,326.406,45.404,326.405,42.432,323.433z"/>
	<path style="fill:#FFC850;" d="M227.275,138.59c-2.972-2.972-2.973-7.792,0-10.765l9.271-9.271
		c2.972-2.973,7.792-2.972,10.765-0.001c2.972,2.972,2.973,7.792,0,10.765l-9.271,9.271
		C235.068,141.562,230.249,141.563,227.275,138.59z"/>
</g>
<path style="fill:#F9B428;" d="M72.644,221.857c0-48.254,36.523-87.972,83.432-93.031c-3.334-0.36-6.719-0.55-10.149-0.55
	c-51.683,0-93.581,41.898-93.581,93.581c0,37.106,21.597,69.165,52.905,84.299c1.857-2.97,4-5.742,6.385-8.285
	C88.021,280.884,72.644,253.167,72.644,221.857z"/>
<g>
	<path style="fill:#00AAF0;" d="M180.398,280.239c2.846,0.573,5.765-0.585,7.393-2.989c11.847-17.49,30.787-29.782,52.695-32.724
		c-3.307-0.44-6.677-0.681-10.104-0.681c-27.07,0-50.816,14.176-64.259,35.5C170.88,279.007,175.543,279.262,180.398,280.239z"/>
	<path style="fill:#00AAF0;" d="M97.803,321.009c-32.466-0.663-58.648,25.453-58.648,57.418c0,31.728,25.721,57.448,57.449,57.448
		h20.299c-31.728,0-57.449-25.721-57.449-57.448c0-30.949,24.476-56.169,55.126-57.39l-0.007-0.01c0,0,3.366-0.212,4.353-3.314
		c0.004-0.012,0.01-0.017,0.014-0.028c5.417-19.028,21.186-33.689,40.836-37.503C131.194,274.614,103.82,293.082,97.803,321.009z"/>
</g>
<g>
</g>
<g>
</g>
<g>
</g>
<g>
</g>
<g>
</g>
<g>
</g>
<g>
</g>
<g>
</g>
<g>
</g>
<g>
</g>
<g>
</g>
<g>
</g>
<g>
</g>
<g>
</g>
<g>
</g>
</svg>
