<?xml version="1.0" encoding="iso-8859-1"?>
<!-- Generator: Adobe Illustrator 19.0.0, SVG Export Plug-In . SVG Version: 6.00 Build 0)  -->
<svg version="1.1" id="Capa_1" xmlns="http://www.w3.org/2000/svg" xmlns:xlink="http://www.w3.org/1999/xlink" x="0px" y="0px"
	 viewBox="0 0 512 512" style="enable-background:new 0 0 512 512;" xml:space="preserve">
<g>
	<circle style="fill:#F0C419;" cx="256" cy="256" r="123.586"/>
	<path style="fill:#F0C419;" d="M256,0L256,0c14.626,0,26.483,11.857,26.483,26.483v44.138c0,14.626-11.857,26.483-26.483,26.483
		l0,0c-14.626,0-26.483-11.857-26.483-26.483V26.483C229.517,11.857,241.374,0,256,0z"/>
	<path style="fill:#F0C419;" d="M256,414.897L256,414.897c14.626,0,26.483,11.857,26.483,26.483v44.138
		C282.483,500.143,270.626,512,256,512l0,0c-14.626,0-26.483-11.857-26.483-26.483v-44.138
		C229.517,426.753,241.374,414.897,256,414.897z"/>
	<path style="fill:#F0C419;" d="M69.556,69.552L69.556,69.552c10.342-10.342,27.11-10.342,37.452,0l31.21,31.21
		c10.342,10.342,10.342,27.11,0,37.452l0,0c-10.342,10.342-27.11,10.342-37.452,0l-31.21-31.21
		C59.214,96.662,59.214,79.894,69.556,69.552z"/>
	<path style="fill:#F0C419;" d="M0,256L0,256c0-14.626,11.857-26.483,26.483-26.483h44.138c14.626,0,26.483,11.857,26.483,26.483
		l0,0c0,14.626-11.857,26.483-26.483,26.483H26.483C11.857,282.483,0,270.626,0,256z"/>
	<path style="fill:#F0C419;" d="M69.55,442.41L69.55,442.41c-10.342-10.342-10.342-27.11,0-37.452l31.21-31.21
		c10.342-10.342,27.11-10.342,37.452,0l0,0c10.342,10.342,10.342,27.11,0,37.452l-31.21,31.21
		C96.66,452.752,79.892,452.752,69.55,442.41z"/>
	<path style="fill:#F0C419;" d="M442.424,442.418L442.424,442.418c-10.342,10.342-27.11,10.342-37.452,0l-31.21-31.21
		c-10.342-10.342-10.342-27.11,0-37.452l0,0c10.342-10.342,27.11-10.342,37.452,0l31.21,31.21
		C452.766,415.308,452.766,432.076,442.424,442.418z"/>
	<path style="fill:#F0C419;" d="M512,256L512,256c0,14.626-11.857,26.483-26.483,26.483h-44.138
		c-14.626,0-26.483-11.857-26.483-26.483l0,0c0-14.626,11.857-26.483,26.483-26.483h44.138C500.143,229.517,512,241.374,512,256z"/>
	<path style="fill:#F0C419;" d="M442.434,69.578L442.434,69.578c10.342,10.342,10.342,27.11,0,37.452l-31.21,31.21
		c-10.342,10.342-27.11,10.342-37.452,0l0,0c-10.342-10.342-10.342-27.11,0-37.452l31.21-31.21
		C415.324,59.236,432.092,59.236,442.434,69.578z"/>
</g>
<g>
</g>
<g>
</g>
<g>
</g>
<g>
</g>
<g>
</g>
<g>
</g>
<g>
</g>
<g>
</g>
<g>
</g>
<g>
</g>
<g>
</g>
<g>
</g>
<g>
</g>
<g>
</g>
<g>
</g>
</svg>
